<svg width="33" height="50" viewBox="0 0 33 50" fill="none" xmlns="http://www.w3.org/2000/svg">
<g filter="url(#filter0_n_1_385)">
<rect width="31.6949" height="50" rx="2.0339" fill="url(#paint0_linear_1_385)"/>
<rect x="0.0976731" y="0.0976731" width="31.4996" height="49.8047" rx="1.93623" stroke="url(#paint1_linear_1_385)" stroke-width="0.195346"/>
</g>
<path d="M31.8644 7.28815H32.3212C32.5369 7.28815 32.7119 7.46307 32.7119 7.67884V11.3042C32.7119 11.52 32.5369 11.6949 32.3212 11.6949H31.8644V7.28815Z" fill="url(#paint2_linear_1_385)"/>
<path d="M31.8644 13.2203H32.3212C32.5369 13.2203 32.7119 13.3953 32.7119 13.611V14.3551C32.7119 14.5708 32.5369 14.7458 32.3212 14.7458H31.8644V13.2203Z" fill="url(#paint3_linear_1_385)"/>
<g filter="url(#filter1_d_1_385)">
<path d="M27.4068 46.0751C27.4068 46.2598 27.339 46.3522 27.2036 46.3522C27.0927 46.3522 27.0188 46.2721 26.9819 46.112L26.908 45.6871C26.8587 45.4285 26.791 45.2622 26.7047 45.1883C26.6185 45.1021 26.4461 45.059 26.1875 45.059H15.3244C15.0658 45.059 14.8933 45.1021 14.8071 45.1883C14.7209 45.2622 14.6532 45.4285 14.6039 45.6871L14.53 46.112C14.4931 46.2721 14.4192 46.3522 14.3083 46.3522C14.1728 46.3522 14.1051 46.2598 14.1051 46.0751V42.2139C14.1051 41.4872 14.2652 40.8468 14.5854 40.2925C14.8933 39.7383 15.3244 39.3072 15.8786 38.9993C16.4329 38.6914 17.0733 38.5374 17.8 38.5374C18.502 38.5374 19.124 38.6914 19.6659 38.9993C20.2079 39.3072 20.6328 39.7321 20.9407 40.2741C21.2363 40.816 21.3841 41.4441 21.3841 42.1585V43.4886C21.3841 43.6611 21.4703 43.7473 21.6427 43.7473H26.1136C26.3722 43.7473 26.5508 43.698 26.6493 43.5995C26.7355 43.501 26.8094 43.2793 26.871 42.9344L26.9819 42.2508C27.0065 42.1154 27.0742 42.0476 27.1851 42.0476C27.3329 42.0476 27.4068 42.14 27.4068 42.3247V46.0751ZM19.9061 43.7473C20.5835 43.7473 20.9222 43.3347 20.9222 42.5095C20.9222 41.7089 20.6389 41.0808 20.0724 40.6251C19.5058 40.1571 18.7299 39.923 17.7446 39.923C16.7346 39.923 15.9525 40.1571 15.3983 40.6251C14.8441 41.0931 14.5669 41.7582 14.5669 42.6203C14.5669 43.3716 14.8133 43.7473 15.3059 43.7473H19.9061ZM27.5731 34.5976C27.5731 35.2257 27.3637 35.7922 26.9449 36.2972C26.5138 36.7899 25.9288 37.184 25.1898 37.4796C24.4508 37.7752 23.6257 37.923 22.7142 37.923C21.8028 37.923 20.9838 37.7752 20.2571 37.4796C19.5305 37.184 18.9516 36.7837 18.5205 36.2787C18.0894 35.7738 17.8739 35.2134 17.8739 34.5976C17.8739 33.9694 18.0894 33.409 18.5205 32.9164C18.9516 32.4114 19.5305 32.0111 20.2571 31.7155C20.9838 31.4199 21.8028 31.2721 22.7142 31.2721C23.6257 31.2721 24.4508 31.4199 25.1898 31.7155C25.9288 31.9988 26.5138 32.3929 26.9449 32.8979C27.3637 33.4029 27.5731 33.9694 27.5731 34.5976ZM27.1112 34.5976C27.1112 33.3167 25.6455 32.6762 22.7142 32.6762C19.7953 32.6762 18.3358 33.3167 18.3358 34.5976C18.3358 35.8785 19.7953 36.5189 22.7142 36.5189C25.6455 36.5189 27.1112 35.8785 27.1112 34.5976ZM27.5731 27.4069C27.5731 27.9488 27.3945 28.4414 27.0373 28.8848C26.6678 29.3159 26.1444 29.6608 25.4669 29.9194C24.7895 30.178 23.9828 30.3074 23.0468 30.3074C21.9999 30.3074 21.0885 30.1534 20.3125 29.8455C19.5366 29.5253 18.9393 29.0942 18.5205 28.5523C18.0894 28.0104 17.8739 27.4069 17.8739 26.7418C17.8739 26.1752 17.9847 25.7318 18.2064 25.4116C18.2927 25.2884 18.4281 25.2269 18.6129 25.2269L20.8668 25.1899C21.0515 25.1899 21.1439 25.2638 21.1439 25.4116C21.1439 25.5471 21.0638 25.6333 20.9037 25.6702C20.2263 25.8427 19.7029 26.0089 19.3334 26.1691C18.9639 26.3292 18.7114 26.4954 18.5759 26.6679C18.4281 26.8403 18.3542 27.0312 18.3542 27.2406C18.3542 27.4869 18.4959 27.7456 18.7792 28.0165C19.0624 28.2752 19.5243 28.4969 20.1647 28.6816C20.7929 28.854 21.6242 28.9402 22.6588 28.9402C23.9767 28.9402 24.9681 28.774 25.6332 28.4414C26.2983 28.0966 26.6308 27.6532 26.6308 27.1113C26.6308 26.6802 26.4523 26.323 26.0951 26.0397C25.7379 25.7441 25.0913 25.4917 24.1553 25.2823C24.0198 25.2453 23.952 25.1714 23.952 25.0606C23.952 24.9128 24.0752 24.8574 24.3215 24.8943C25.1837 25.0298 25.8549 25.2207 26.3353 25.467C26.8033 25.701 27.1297 25.9843 27.3144 26.3169C27.4868 26.6371 27.5731 27.0004 27.5731 27.4069ZM27.4068 23.8988C27.4068 24.0466 27.339 24.1205 27.2036 24.1205C27.0804 24.1205 27.0065 24.0528 26.9819 23.9173L26.9449 23.6586C26.908 23.4 26.8341 23.2337 26.7232 23.1598C26.6124 23.0736 26.4276 23.0305 26.169 23.0305H15.5831C15.3614 23.0305 15.2136 23.0675 15.1397 23.1414C15.0534 23.2029 14.998 23.3199 14.9734 23.4924L14.918 23.8803C14.8933 24.0158 14.8194 24.0836 14.6963 24.0836C14.5731 24.0836 14.4992 24.0158 14.4746 23.8803C14.4007 23.5355 14.3145 23.246 14.2159 23.012C14.1174 22.778 14.0189 22.581 13.9203 22.4208C13.7972 22.2238 13.7356 22.076 13.7356 21.9775C13.7356 21.842 13.8341 21.7742 14.0312 21.7742H21.772C21.8952 21.7742 21.9753 21.725 22.0122 21.6264C22.0368 21.5156 21.9937 21.4109 21.8829 21.3124L19.5551 19.1508C19.2718 18.8922 19.0378 18.7875 18.8531 18.8368C18.656 18.8737 18.5328 19.0154 18.4836 19.2617L18.4097 19.6866C18.3727 19.8467 18.2927 19.9268 18.1695 19.9268C18.0463 19.9268 17.9847 19.8406 17.9847 19.6681V16.4905C17.9847 16.3181 18.0525 16.2319 18.188 16.2319C18.3234 16.2319 18.3973 16.3119 18.4097 16.472L18.4281 16.6383C18.4528 16.9216 18.5636 17.2049 18.7607 17.4881C18.9454 17.7714 19.241 18.1101 19.6475 18.5042L20.8668 19.6497C21.1501 19.9083 21.4272 19.9699 21.6981 19.8344L26.169 17.5066C26.4153 17.3711 26.5939 17.2233 26.7047 17.0632C26.8156 16.9031 26.8957 16.706 26.9449 16.472L26.9819 16.2873C27.0188 16.1395 27.0927 16.0656 27.2036 16.0656C27.339 16.0656 27.4068 16.1518 27.4068 16.3242V19.5388C27.4068 19.7112 27.339 19.7975 27.2036 19.7975C27.0804 19.7975 27.0065 19.7174 26.9819 19.5573L26.9449 19.2432C26.8833 18.7752 26.5816 18.6767 26.0397 18.9476L22.6219 20.7027C22.4987 20.7643 22.431 20.8567 22.4186 20.9798C22.4063 21.0907 22.4494 21.1954 22.548 21.2939L22.7512 21.4971C22.862 21.608 22.9729 21.6819 23.0837 21.7188C23.1946 21.7558 23.3177 21.7742 23.4532 21.7742H26.169C26.4276 21.7742 26.6124 21.7373 26.7232 21.6634C26.8341 21.5772 26.9018 21.4047 26.9264 21.1461L26.9819 20.6473C27.0065 20.5118 27.0804 20.4441 27.2036 20.4441C27.339 20.4441 27.4068 20.518 27.4068 20.6658V23.8988ZM27.5731 13.0364C27.5731 13.6276 27.376 14.1572 26.9819 14.6252C26.5877 15.0933 26.0335 15.4689 25.3192 15.7522C24.5925 16.0232 23.755 16.1586 22.8066 16.1586C21.8336 16.1586 20.9776 16.017 20.2386 15.7337C19.4997 15.4504 18.9208 15.0625 18.502 14.5698C18.0833 14.0772 17.8739 13.5291 17.8739 12.9256C17.8739 12.1989 18.1756 11.6139 18.7792 11.1705C19.3703 10.7148 20.3372 10.4869 21.6797 10.4869C22.0861 10.4869 22.2893 10.6409 22.2893 10.9488L22.2893 14.459C22.2893 14.7053 22.431 14.8285 22.7142 14.8285C24.0198 14.8285 24.9989 14.6376 25.6517 14.2558C26.3045 13.8739 26.6308 13.3875 26.6308 12.7963C26.6308 12.3282 26.4646 11.9464 26.132 11.6508C25.7995 11.3552 25.2391 11.1151 24.4508 10.9303C24.3154 10.8934 24.2476 10.8133 24.2476 10.6902C24.2476 10.5424 24.3708 10.4869 24.6171 10.5239C25.7133 10.721 26.4831 11.035 26.9264 11.4661C27.3575 11.8972 27.5731 12.4206 27.5731 13.0364ZM21.8275 14.5144V12.6485C21.8275 12.0573 21.5195 11.7617 20.9037 11.7617C20.1032 11.7617 19.475 11.8602 19.0193 12.0573C18.5636 12.2543 18.3358 12.5499 18.3358 12.9441C18.3358 13.4244 18.6129 13.8308 19.1671 14.1634C19.7214 14.4836 20.5096 14.693 21.5319 14.7915C21.7289 14.8162 21.8275 14.7238 21.8275 14.5144ZM27.5731 7.22642C27.5731 7.6575 27.4253 8.01467 27.1297 8.29795C26.8218 8.56891 26.3229 8.70439 25.6332 8.70439H18.7237C18.5759 8.70439 18.502 8.77829 18.502 8.92608V9.46185C18.502 9.65891 18.4281 9.75744 18.2803 9.75744C18.1818 9.75744 18.0956 9.70201 18.0217 9.59117C17.7384 9.18473 17.4367 8.85834 17.1164 8.61201C16.7839 8.36569 16.3343 8.15015 15.7678 7.9654C15.5092 7.87919 15.3798 7.7745 15.3798 7.65134C15.3798 7.51586 15.4784 7.44812 15.6754 7.44812H17.7261C17.8985 7.44812 17.9847 7.3619 17.9847 7.18947V5.98862C17.9847 5.79156 18.071 5.69303 18.2434 5.69303C18.4158 5.69303 18.502 5.79156 18.502 5.98862V7.18947C18.502 7.3619 18.5882 7.44812 18.7607 7.44812H25.6517C25.9227 7.44812 26.1382 7.40501 26.2983 7.31879C26.4461 7.23258 26.52 7.07247 26.52 6.83846C26.52 6.57981 26.3907 6.37043 26.132 6.21032C25.8734 6.03789 25.4546 5.92704 24.8758 5.87778C24.7033 5.85314 24.6171 5.77309 24.6171 5.63761C24.6171 5.48981 24.7095 5.41591 24.8942 5.41591C25.8426 5.45286 26.5262 5.64992 26.9449 6.0071C27.3637 6.35196 27.5731 6.7584 27.5731 7.22642Z" fill="url(#paint4_linear_1_385)"/>
</g>
<defs>
<filter id="filter0_n_1_385" x="0" y="0" width="31.6949" height="50" filterUnits="userSpaceOnUse" color-interpolation-filters="sRGB">
<feFlood flood-opacity="0" result="BackgroundImageFix"/>
<feBlend mode="normal" in="SourceGraphic" in2="BackgroundImageFix" result="shape"/>
<feTurbulence type="fractalNoise" baseFrequency="11.800000190734863 11.800000190734863" stitchTiles="stitch" numOctaves="3" result="noise" seed="1449" />
<feColorMatrix in="noise" type="luminanceToAlpha" result="alphaNoise" />
<feComponentTransfer in="alphaNoise" result="coloredNoise1">
<feFuncA type="discrete" tableValues="0 0 0 0 0 0 0 0 0 0 0 0 0 0 0 0 0 0 0 0 0 1 1 1 1 1 1 1 1 0 0 0 0 0 0 0 0 0 0 0 0 0 0 0 0 0 0 0 0 0 0 0 0 0 0 0 0 0 0 0 0 0 0 0 0 0 0 0 0 0 0 0 0 0 0 0 0 0 0 0 0 0 0 0 0 0 0 0 0 0 0 0 0 0 0 0 0 0 0 0 "/>
</feComponentTransfer>
<feComposite operator="in" in2="shape" in="coloredNoise1" result="noise1Clipped" />
<feComponentTransfer in="alphaNoise" result="coloredNoise2">
<feFuncA type="discrete" tableValues="0 0 0 0 0 0 0 0 0 0 0 0 0 0 0 0 0 0 0 0 0 0 0 0 0 0 0 0 0 0 0 0 0 0 0 0 0 0 0 0 0 0 0 0 0 0 0 0 0 0 0 0 0 0 0 0 0 0 0 0 0 0 0 0 0 0 0 0 0 0 0 1 1 1 1 1 1 1 1 0 0 0 0 0 0 0 0 0 0 0 0 0 0 0 0 0 0 0 0 0 "/>
</feComponentTransfer>
<feComposite operator="in" in2="shape" in="coloredNoise2" result="noise2Clipped" />
<feFlood flood-color="rgba(0, 0, 0, 0.45)" result="color1Flood" />
<feComposite operator="in" in2="noise1Clipped" in="color1Flood" result="color1" />
<feFlood flood-color="rgba(255, 255, 255, 0.25)" result="color2Flood" />
<feComposite operator="in" in2="noise2Clipped" in="color2Flood" result="color2" />
<feMerge result="effect1_noise_1_385">
<feMergeNode in="shape" />
<feMergeNode in="color1" />
<feMergeNode in="color2" />
</feMerge>
</filter>
<filter id="filter1_d_1_385" x="13.3966" y="5.2464" width="14.5154" height="41.6142" filterUnits="userSpaceOnUse" color-interpolation-filters="sRGB">
<feFlood flood-opacity="0" result="BackgroundImageFix"/>
<feColorMatrix in="SourceAlpha" type="matrix" values="0 0 0 0 0 0 0 0 0 0 0 0 0 0 0 0 0 0 127 0" result="hardAlpha"/>
<feOffset dy="0.169492"/>
<feGaussianBlur stdDeviation="0.169492"/>
<feComposite in2="hardAlpha" operator="out"/>
<feColorMatrix type="matrix" values="0 0 0 0 0 0 0 0 0 0 0 0 0 0 0 0 0 0 0.15 0"/>
<feBlend mode="normal" in2="BackgroundImageFix" result="effect1_dropShadow_1_385"/>
<feBlend mode="normal" in="SourceGraphic" in2="effect1_dropShadow_1_385" result="shape"/>
</filter>
<linearGradient id="paint0_linear_1_385" x1="31.6949" y1="0" x2="0.847458" y2="50" gradientUnits="userSpaceOnUse">
<stop stop-color="#8B8E93"/>
<stop offset="1" stop-color="#76787C"/>
</linearGradient>
<linearGradient id="paint1_linear_1_385" x1="15.8475" y1="0" x2="15.9322" y2="19.661" gradientUnits="userSpaceOnUse">
<stop stop-color="white" stop-opacity="0.07"/>
<stop offset="1" stop-color="white" stop-opacity="0"/>
</linearGradient>
<linearGradient id="paint2_linear_1_385" x1="31.8644" y1="9.49154" x2="32.7119" y2="9.49154" gradientUnits="userSpaceOnUse">
<stop stop-color="#888B90"/>
<stop offset="1" stop-color="#7B7F86"/>
</linearGradient>
<linearGradient id="paint3_linear_1_385" x1="31.8644" y1="13.983" x2="32.7119" y2="13.983" gradientUnits="userSpaceOnUse">
<stop stop-color="#888B90"/>
<stop offset="1" stop-color="#7B7F86"/>
</linearGradient>
<linearGradient id="paint4_linear_1_385" x1="20.9068" y1="4.93219" x2="20.9068" y2="46.9322" gradientUnits="userSpaceOnUse">
<stop stop-color="#A7AAB1"/>
<stop offset="1" stop-color="#919398"/>
</linearGradient>
</defs>
</svg>
